<svg xmlns="http://www.w3.org/2000/svg" xmlns:xlink="http://www.w3.org/1999/xlink" width="300" zoomAndPan="magnify" viewBox="0 0 224.87999 225" height="300" preserveAspectRatio="xMidYMid meet" version="1.0"><path fill="rgb(100%, 100%, 100%)" d="M 177.855469 139.503906 C 185.234375 172.871094 191.929688 191.484375 163.550781 208.046875 C 139.574219 222.042969 131.007812 193.074219 107.113281 191.484375 C 87.050781 190.140625 68.957031 212.277344 47.847656 204.226562 C 26.957031 196.261719 27.273438 173.375 36.113281 144.53125 C 49.652344 100.371094 84.707031 84.832031 107.089844 84.832031 C 132.957031 84.832031 168.808594 98.582031 177.855469 139.503906 " fill-opacity="1" fill-rule="nonzero"/><path fill="rgb(100%, 100%, 100%)" d="M 177.855469 139.503906 L 176.5625 139.789062 C 179.84375 154.621094 182.949219 166.484375 182.941406 176.316406 C 182.9375 182.484375 181.753906 187.820312 178.699219 192.777344 C 175.640625 197.734375 170.652344 202.359375 162.882812 206.898438 C 158.394531 209.515625 154.578125 210.523438 151.136719 210.523438 C 147.554688 210.523438 144.308594 209.425781 141.082031 207.683594 C 136.242188 205.074219 131.535156 200.996094 126.175781 197.386719 C 120.824219 193.789062 114.753906 190.65625 107.203125 190.15625 C 106.578125 190.109375 105.960938 190.09375 105.339844 190.09375 C 101.070312 190.09375 96.929688 191.046875 92.882812 192.441406 C 86.8125 194.539062 80.925781 197.628906 75.054688 200.160156 C 69.179688 202.699219 63.347656 204.664062 57.4375 204.664062 C 54.445312 204.664062 51.429688 204.167969 48.316406 202.984375 C 42.289062 200.675781 38.21875 197.167969 35.574219 192.601562 C 32.9375 188.03125 31.738281 182.335938 31.738281 175.695312 C 31.734375 166.851562 33.871094 156.378906 37.386719 144.921875 C 44.078125 123.109375 56.03125 108.449219 69.054688 99.207031 C 82.070312 89.960938 96.199219 86.15625 107.089844 86.160156 C 119.792969 86.160156 135 89.550781 148.0625 97.941406 C 154.597656 102.136719 160.605469 107.574219 165.539062 114.46875 C 170.472656 121.367188 174.335938 129.722656 176.5625 139.789062 L 177.855469 139.503906 L 179.15625 139.214844 C 176.855469 128.820312 172.84375 120.109375 167.703125 112.921875 C 159.984375 102.136719 149.742188 94.773438 138.992188 90.117188 C 128.234375 85.464844 116.964844 83.5 107.089844 83.5 C 95.597656 83.507812 81.003906 87.472656 67.515625 97.035156 C 54.03125 106.597656 41.691406 121.792969 34.847656 144.140625 C 31.289062 155.742188 29.082031 166.425781 29.082031 175.695312 C 29.082031 182.648438 30.328125 188.824219 33.273438 193.929688 C 36.214844 199.039062 40.867188 202.996094 47.371094 205.46875 C 50.785156 206.773438 54.152344 207.324219 57.4375 207.324219 C 61.773438 207.324219 65.964844 206.371094 70.046875 204.976562 C 76.171875 202.878906 82.078125 199.785156 87.921875 197.253906 C 93.773438 194.710938 99.539062 192.75 105.339844 192.753906 C 105.898438 192.753906 106.460938 192.769531 107.027344 192.808594 C 111.628906 193.117188 115.632812 194.480469 119.339844 196.390625 C 124.898438 199.25 129.753906 203.359375 134.738281 206.839844 C 137.234375 208.574219 139.769531 210.152344 142.464844 211.308594 C 145.160156 212.460938 148.03125 213.1875 151.136719 213.183594 C 155.113281 213.1875 159.429688 211.996094 164.21875 209.195312 C 172.234375 204.519531 177.605469 199.613281 180.960938 194.175781 C 184.320312 188.738281 185.601562 182.816406 185.601562 176.316406 C 185.589844 165.933594 182.414062 153.996094 179.15625 139.214844 L 177.855469 139.503906 " fill-opacity="1" fill-rule="nonzero"/><path fill="rgb(100%, 100%, 100%)" d="M 42.027344 71.582031 C 49.464844 85.5625 47.75 101.023438 38.195312 106.117188 C 28.636719 111.210938 14.863281 104.003906 7.425781 90.03125 C -0.0117188 76.054688 1.703125 60.589844 11.261719 55.496094 C 20.816406 50.40625 34.589844 57.609375 42.027344 71.582031 " fill-opacity="1" fill-rule="nonzero"/><path fill="rgb(100%, 100%, 100%)" d="M 42.027344 71.582031 L 40.855469 72.207031 C 43.875 77.878906 45.324219 83.796875 45.324219 89.058594 C 45.324219 92.710938 44.625 96.039062 43.308594 98.761719 C 41.988281 101.492188 40.070312 103.609375 37.570312 104.945312 C 35.691406 105.945312 33.636719 106.421875 31.460938 106.421875 C 27.554688 106.425781 23.25 104.851562 19.210938 101.914062 C 15.171875 98.984375 11.414062 94.703125 8.597656 89.40625 C 5.578125 83.734375 4.128906 77.820312 4.128906 72.558594 C 4.128906 68.90625 4.828125 65.574219 6.144531 62.851562 C 7.464844 60.125 9.378906 58.007812 11.882812 56.671875 C 13.761719 55.671875 15.816406 55.191406 17.992188 55.191406 C 21.894531 55.1875 26.203125 56.761719 30.242188 59.699219 C 34.28125 62.632812 38.035156 66.910156 40.855469 72.207031 L 42.027344 71.582031 L 43.203125 70.957031 C 40.199219 65.320312 36.199219 60.738281 31.804688 57.546875 C 27.410156 54.355469 22.609375 52.535156 17.992188 52.53125 C 15.425781 52.53125 12.917969 53.105469 10.632812 54.324219 C 7.585938 55.945312 5.269531 58.539062 3.75 61.691406 C 2.226562 64.851562 1.472656 68.570312 1.472656 72.558594 C 1.472656 78.304688 3.042969 84.617188 6.253906 90.65625 C 9.253906 96.292969 13.253906 100.871094 17.648438 104.066406 C 22.042969 107.257812 26.84375 109.078125 31.460938 109.082031 C 34.027344 109.085938 36.535156 108.511719 38.820312 107.292969 C 41.871094 105.667969 44.179688 103.074219 45.703125 99.921875 C 47.226562 96.765625 47.980469 93.042969 47.980469 89.058594 C 47.980469 83.308594 46.414062 76.996094 43.203125 70.957031 L 42.027344 71.582031 " fill-opacity="1" fill-rule="nonzero"/><path fill="rgb(100%, 100%, 100%)" d="M 182.851562 73.933594 C 175.410156 87.914062 177.132812 103.375 186.683594 108.464844 C 196.242188 113.5625 210.015625 106.359375 217.457031 92.382812 C 224.890625 78.402344 223.175781 62.941406 213.621094 57.847656 C 204.0625 52.753906 190.285156 59.960938 182.851562 73.933594 " fill-opacity="1" fill-rule="nonzero"/><path fill="rgb(100%, 100%, 100%)" d="M 182.851562 73.933594 L 181.675781 73.304688 C 178.464844 79.34375 176.898438 85.660156 176.894531 91.40625 C 176.894531 95.394531 177.652344 99.113281 179.175781 102.269531 C 180.695312 105.425781 183.007812 108.015625 186.058594 109.640625 C 188.34375 110.859375 190.851562 111.433594 193.417969 111.433594 C 198.035156 111.429688 202.835938 109.605469 207.230469 106.417969 C 211.625 103.222656 215.625 98.644531 218.628906 93.007812 C 221.839844 86.96875 223.40625 80.652344 223.410156 74.90625 C 223.40625 70.917969 222.652344 67.199219 221.125 64.042969 C 219.609375 60.890625 217.296875 58.296875 214.246094 56.671875 C 211.960938 55.457031 209.453125 54.882812 206.886719 54.882812 C 202.269531 54.886719 197.46875 56.707031 193.074219 59.894531 C 188.679688 63.089844 184.675781 67.671875 181.675781 73.304688 L 184.023438 74.558594 C 186.839844 69.261719 190.597656 64.980469 194.632812 62.050781 C 198.671875 59.113281 202.980469 57.539062 206.886719 57.542969 C 209.0625 57.542969 211.117188 58.023438 212.996094 59.023438 C 215.5 60.359375 217.414062 62.476562 218.734375 65.203125 C 220.050781 67.925781 220.75 71.257812 220.75 74.90625 C 220.75 80.167969 219.300781 86.082031 216.28125 91.757812 C 213.464844 97.054688 209.707031 101.332031 205.667969 104.265625 C 201.628906 107.199219 197.324219 108.777344 193.417969 108.773438 C 191.242188 108.769531 189.1875 108.292969 187.3125 107.292969 C 184.804688 105.957031 182.890625 103.839844 181.570312 101.109375 C 180.253906 98.386719 179.554688 95.058594 179.554688 91.40625 C 179.554688 86.144531 181.003906 80.230469 184.023438 74.558594 L 182.851562 73.933594 " fill-opacity="1" fill-rule="nonzero"/><path fill="rgb(100%, 100%, 100%)" d="M 99.921875 34.691406 C 103.46875 53.164062 96.109375 70.101562 83.484375 72.53125 C 70.851562 74.957031 57.746094 61.945312 54.199219 43.480469 C 50.664062 25.003906 58.027344 8.070312 70.648438 5.644531 C 83.277344 3.214844 96.382812 16.222656 99.921875 34.691406 " fill-opacity="1" fill-rule="nonzero"/><path fill="rgb(100%, 100%, 100%)" d="M 99.921875 34.691406 L 98.617188 34.941406 C 99.207031 38 99.484375 41.011719 99.484375 43.917969 C 99.488281 51.003906 97.8125 57.429688 94.9375 62.257812 C 93.5 64.671875 91.765625 66.6875 89.800781 68.210938 C 87.832031 69.730469 85.640625 70.761719 83.234375 71.226562 C 82.296875 71.40625 81.359375 71.492188 80.421875 71.492188 C 77.753906 71.492188 75.078125 70.785156 72.492188 69.441406 C 68.613281 67.433594 64.953125 63.996094 61.972656 59.488281 C 58.992188 54.984375 56.695312 49.425781 55.507812 43.230469 C 54.921875 40.171875 54.640625 37.164062 54.640625 34.269531 C 54.640625 27.175781 56.316406 20.746094 59.191406 15.917969 C 60.628906 13.5 62.367188 11.488281 64.332031 9.964844 C 66.300781 8.441406 68.496094 7.414062 70.902344 6.949219 C 71.839844 6.769531 72.777344 6.679688 73.714844 6.679688 C 76.382812 6.679688 79.058594 7.386719 81.644531 8.730469 C 85.519531 10.734375 89.179688 14.175781 92.15625 18.683594 C 95.132812 23.183594 97.433594 28.742188 98.617188 34.941406 L 101.230469 34.4375 C 99.558594 25.730469 95.820312 18.1875 90.945312 12.761719 C 88.503906 10.054688 85.777344 7.875 82.867188 6.367188 C 79.957031 4.859375 76.855469 4.019531 73.714844 4.019531 C 72.609375 4.019531 71.5 4.125 70.402344 4.339844 C 67.5625 4.882812 64.972656 6.105469 62.707031 7.859375 C 59.304688 10.492188 56.632812 14.296875 54.800781 18.828125 C 52.972656 23.363281 51.984375 28.636719 51.984375 34.269531 C 51.984375 37.335938 52.28125 40.511719 52.894531 43.730469 C 54.570312 52.441406 58.308594 59.984375 63.1875 65.40625 C 65.628906 68.117188 68.359375 70.296875 71.269531 71.804688 C 74.179688 73.3125 77.28125 74.152344 80.421875 74.152344 C 81.523438 74.152344 82.632812 74.050781 83.734375 73.835938 C 86.570312 73.292969 89.160156 72.066406 91.425781 70.3125 C 94.824219 67.679688 97.496094 63.878906 99.328125 59.347656 C 101.152344 54.8125 102.144531 49.542969 102.144531 43.917969 C 102.144531 40.84375 101.847656 37.664062 101.230469 34.4375 L 99.921875 34.691406 " fill-opacity="1" fill-rule="nonzero"/><path fill="rgb(100%, 100%, 100%)" d="M 172.117188 46.6875 C 167.609375 64.945312 153.839844 77.246094 141.359375 74.160156 C 128.875 71.070312 122.414062 53.769531 126.917969 35.507812 C 131.429688 17.253906 145.199219 4.949219 157.679688 8.039062 C 170.164062 11.125 176.625 28.429688 172.117188 46.6875 " fill-opacity="1" fill-rule="nonzero"/><path fill="rgb(100%, 100%, 100%)" d="M 172.117188 46.6875 L 170.828125 46.367188 C 168.863281 54.339844 165.078125 61.125 160.46875 65.875 C 158.167969 68.25 155.660156 70.109375 153.085938 71.375 C 150.507812 72.640625 147.871094 73.304688 145.265625 73.304688 C 144.0625 73.304688 142.863281 73.160156 141.675781 72.871094 C 139.429688 72.3125 137.398438 71.257812 135.589844 69.777344 C 132.878906 67.554688 130.683594 64.351562 129.164062 60.453125 C 127.644531 56.558594 126.8125 51.980469 126.8125 47.066406 C 126.8125 43.457031 127.261719 39.664062 128.207031 35.828125 C 130.171875 27.859375 133.957031 21.070312 138.566406 16.324219 C 140.867188 13.949219 143.375 12.089844 145.949219 10.824219 C 148.527344 9.558594 151.164062 8.894531 153.769531 8.894531 C 154.972656 8.894531 156.171875 9.035156 157.359375 9.332031 L 157.363281 9.332031 C 159.609375 9.886719 161.636719 10.941406 163.445312 12.421875 C 166.15625 14.640625 168.351562 17.84375 169.871094 21.742188 C 171.390625 25.632812 172.222656 30.210938 172.222656 35.125 C 172.222656 38.734375 171.773438 42.527344 170.828125 46.367188 L 173.40625 47.007812 C 174.40625 42.957031 174.882812 38.953125 174.882812 35.125 C 174.878906 28.171875 173.320312 21.789062 170.4375 16.761719 C 168.996094 14.25 167.21875 12.078125 165.132812 10.367188 C 163.042969 8.652344 160.644531 7.402344 158 6.75 C 156.597656 6.402344 155.183594 6.234375 153.769531 6.234375 C 150.710938 6.234375 147.667969 7.015625 144.78125 8.433594 C 140.445312 10.566406 136.441406 14.113281 133.128906 18.695312 C 129.8125 23.273438 127.183594 28.890625 125.628906 35.191406 C 124.628906 39.234375 124.15625 43.238281 124.15625 47.066406 C 124.15625 54.019531 125.714844 60.40625 128.597656 65.433594 C 130.039062 67.945312 131.820312 70.117188 133.90625 71.832031 C 135.992188 73.546875 138.390625 74.796875 141.039062 75.453125 C 142.4375 75.796875 143.851562 75.964844 145.265625 75.964844 C 148.324219 75.964844 151.367188 75.183594 154.253906 73.765625 C 158.59375 71.632812 162.59375 68.082031 165.90625 63.503906 C 169.222656 58.921875 171.851562 53.304688 173.40625 47.007812 L 172.117188 46.6875 " fill-opacity="1" fill-rule="nonzero"/></svg>