<svg xmlns="http://www.w3.org/2000/svg" xmlns:xlink="http://www.w3.org/1999/xlink" width="1000" zoomAndPan="magnify" viewBox="0 0 750 374.999991" height="500" preserveAspectRatio="xMidYMid meet" version="1.0"><defs><g/></defs><g fill="rgb(100%, 52.938843%, 0%)" fill-opacity="1"><g transform="translate(32.027351, 229.356086)"><g><path d="M 3.703125 -41.015625 C 3.703125 -49.046875 5.378906 -56.207031 8.734375 -62.5 C 12.097656 -68.800781 16.867188 -73.707031 23.046875 -77.21875 C 29.234375 -80.726562 36.34375 -82.484375 44.375 -82.484375 C 54.570312 -82.484375 63.144531 -79.757812 70.09375 -74.3125 C 77.039062 -68.875 81.519531 -61.484375 83.53125 -52.140625 L 59.09375 -52.140625 C 57.625 -55.222656 55.59375 -57.578125 53 -59.203125 C 50.414062 -60.828125 47.425781 -61.640625 44.03125 -61.640625 C 38.769531 -61.640625 34.578125 -59.765625 31.453125 -56.015625 C 28.328125 -52.273438 26.765625 -47.273438 26.765625 -41.015625 C 26.765625 -34.679688 28.328125 -29.640625 31.453125 -25.890625 C 34.578125 -22.148438 38.769531 -20.28125 44.03125 -20.28125 C 47.425781 -20.28125 50.414062 -21.085938 53 -22.703125 C 55.59375 -24.328125 57.625 -26.6875 59.09375 -29.78125 L 83.53125 -29.78125 C 81.519531 -20.425781 77.039062 -13.023438 70.09375 -7.578125 C 63.144531 -2.140625 54.570312 0.578125 44.375 0.578125 C 36.34375 0.578125 29.234375 -1.175781 23.046875 -4.6875 C 16.867188 -8.207031 12.097656 -13.113281 8.734375 -19.40625 C 5.378906 -25.695312 3.703125 -32.898438 3.703125 -41.015625 Z M 3.703125 -41.015625 "/></g></g></g><g fill="rgb(100%, 100%, 100%)" fill-opacity="1"><g transform="translate(119.835939, 229.356086)"><g><path d="M 68.59375 -33.25 C 68.59375 -31.476562 68.472656 -29.703125 68.234375 -27.921875 L 25.25 -27.921875 C 25.488281 -24.367188 26.472656 -21.722656 28.203125 -19.984375 C 29.941406 -18.242188 32.164062 -17.375 34.875 -17.375 C 38.65625 -17.375 41.359375 -19.078125 42.984375 -22.484375 L 67.203125 -22.484375 C 66.191406 -17.992188 64.238281 -13.992188 61.34375 -10.484375 C 58.445312 -6.972656 54.796875 -4.210938 50.390625 -2.203125 C 45.992188 -0.191406 41.128906 0.8125 35.796875 0.8125 C 29.390625 0.8125 23.691406 -0.535156 18.703125 -3.234375 C 13.722656 -5.941406 9.820312 -9.804688 7 -14.828125 C 4.1875 -19.847656 2.78125 -25.757812 2.78125 -32.5625 C 2.78125 -39.351562 4.171875 -45.238281 6.953125 -50.21875 C 9.734375 -55.207031 13.613281 -59.050781 18.59375 -61.75 C 23.570312 -64.457031 29.304688 -65.8125 35.796875 -65.8125 C 42.210938 -65.8125 47.890625 -64.492188 52.828125 -61.859375 C 57.773438 -59.234375 61.640625 -55.46875 64.421875 -50.5625 C 67.203125 -45.664062 68.59375 -39.894531 68.59375 -33.25 Z M 45.421875 -38.921875 C 45.421875 -41.703125 44.492188 -43.882812 42.640625 -45.46875 C 40.785156 -47.050781 38.46875 -47.84375 35.6875 -47.84375 C 32.90625 -47.84375 30.625 -47.085938 28.84375 -45.578125 C 27.070312 -44.078125 25.914062 -41.859375 25.375 -38.921875 Z M 45.421875 -38.921875 "/></g></g></g><g fill="rgb(100%, 100%, 100%)" fill-opacity="1"><g transform="translate(191.200512, 229.356086)"><g><path d="M 29.203125 -55.953125 C 30.972656 -58.972656 33.476562 -61.367188 36.71875 -63.140625 C 39.96875 -64.921875 43.796875 -65.8125 48.203125 -65.8125 C 53.367188 -65.8125 58.054688 -64.457031 62.265625 -61.75 C 66.484375 -59.050781 69.804688 -55.191406 72.234375 -50.171875 C 74.671875 -45.148438 75.890625 -39.28125 75.890625 -32.5625 C 75.890625 -25.84375 74.671875 -19.953125 72.234375 -14.890625 C 69.804688 -9.828125 66.484375 -5.941406 62.265625 -3.234375 C 58.054688 -0.535156 53.367188 0.8125 48.203125 0.8125 C 43.796875 0.8125 39.988281 -0.0703125 36.78125 -1.84375 C 33.582031 -3.625 31.054688 -6.019531 29.203125 -9.03125 L 29.203125 31.046875 L 6.484375 31.046875 L 6.484375 -65 L 29.203125 -65 Z M 52.828125 -32.5625 C 52.828125 -36.800781 51.6875 -40.097656 49.40625 -42.453125 C 47.132812 -44.816406 44.335938 -46 41.015625 -46 C 37.691406 -46 34.890625 -44.800781 32.609375 -42.40625 C 30.335938 -40.007812 29.203125 -36.726562 29.203125 -32.5625 C 29.203125 -28.3125 30.335938 -24.988281 32.609375 -22.59375 C 34.890625 -20.195312 37.691406 -19 41.015625 -19 C 44.335938 -19 47.132812 -20.210938 49.40625 -22.640625 C 51.6875 -25.078125 52.828125 -28.382812 52.828125 -32.5625 Z M 52.828125 -32.5625 "/></g></g></g><g fill="rgb(100%, 100%, 100%)" fill-opacity="1"><g transform="translate(269.979587, 229.356086)"><g><path d="M 2.78125 -32.5625 C 2.78125 -39.28125 3.992188 -45.148438 6.421875 -50.171875 C 8.859375 -55.191406 12.179688 -59.050781 16.390625 -61.75 C 20.597656 -64.457031 25.289062 -65.8125 30.46875 -65.8125 C 34.945312 -65.8125 38.804688 -64.921875 42.046875 -63.140625 C 45.296875 -61.367188 47.8125 -58.972656 49.59375 -55.953125 L 49.59375 -65 L 72.296875 -65 L 72.296875 0 L 49.59375 0 L 49.59375 -9.03125 C 47.8125 -6.019531 45.28125 -3.625 42 -1.84375 C 38.71875 -0.0703125 34.875 0.8125 30.46875 0.8125 C 25.289062 0.8125 20.597656 -0.535156 16.390625 -3.234375 C 12.179688 -5.941406 8.859375 -9.828125 6.421875 -14.890625 C 3.992188 -19.953125 2.78125 -25.84375 2.78125 -32.5625 Z M 49.59375 -32.5625 C 49.59375 -36.726562 48.453125 -40.007812 46.171875 -42.40625 C 43.890625 -44.800781 41.085938 -46 37.765625 -46 C 34.367188 -46 31.550781 -44.816406 29.3125 -42.453125 C 27.070312 -40.097656 25.953125 -36.800781 25.953125 -32.5625 C 25.953125 -28.382812 27.070312 -25.078125 29.3125 -22.640625 C 31.550781 -20.210938 34.367188 -19 37.765625 -19 C 41.085938 -19 43.890625 -20.195312 46.171875 -22.59375 C 48.453125 -24.988281 49.59375 -28.3125 49.59375 -32.5625 Z M 49.59375 -32.5625 "/></g></g></g><g fill="rgb(100%, 100%, 100%)" fill-opacity="1"><g transform="translate(348.758661, 229.356086)"><g><path d="M 29.203125 -53.53125 C 31.742188 -57.238281 34.828125 -60.171875 38.453125 -62.328125 C 42.085938 -64.492188 45.992188 -65.578125 50.171875 -65.578125 L 50.171875 -41.359375 L 43.796875 -41.359375 C 38.847656 -41.359375 35.175781 -40.390625 32.78125 -38.453125 C 30.394531 -36.523438 29.203125 -33.171875 29.203125 -28.390625 L 29.203125 0 L 6.484375 0 L 6.484375 -65 L 29.203125 -65 Z M 29.203125 -53.53125 "/></g></g></g><g fill="rgb(100%, 100%, 100%)" fill-opacity="1"><g transform="translate(400.544317, 229.356086)"><g><path d="M 17.953125 -71.015625 C 13.941406 -71.015625 10.71875 -72.113281 8.28125 -74.3125 C 5.851562 -76.519531 4.640625 -79.285156 4.640625 -82.609375 C 4.640625 -86.003906 5.851562 -88.820312 8.28125 -91.0625 C 10.71875 -93.300781 13.941406 -94.421875 17.953125 -94.421875 C 21.890625 -94.421875 25.078125 -93.300781 27.515625 -91.0625 C 29.953125 -88.820312 31.171875 -86.003906 31.171875 -82.609375 C 31.171875 -79.285156 29.953125 -76.519531 27.515625 -74.3125 C 25.078125 -72.113281 21.890625 -71.015625 17.953125 -71.015625 Z M 29.203125 -65 L 29.203125 0 L 6.484375 0 L 6.484375 -65 Z M 29.203125 -65 "/></g></g></g><g fill="rgb(100%, 52.938843%, 0%)" fill-opacity="1"><g transform="translate(436.21873, 229.356086)"><g/></g></g><g fill="rgb(100%, 52.938843%, 0%)" fill-opacity="1"><g transform="translate(458.346384, 229.356086)"><g><path d="M 71.015625 -54.453125 C 71.015625 -49.503906 69.875 -45.003906 67.59375 -40.953125 C 65.320312 -36.898438 61.890625 -33.65625 57.296875 -31.21875 C 52.703125 -28.789062 47.082031 -27.578125 40.4375 -27.578125 L 29.203125 -27.578125 L 29.203125 0 L 6.484375 0 L 6.484375 -81.6875 L 40.4375 -81.6875 C 47 -81.6875 52.578125 -80.523438 57.171875 -78.203125 C 61.765625 -75.890625 65.21875 -72.6875 67.53125 -68.59375 C 69.851562 -64.5 71.015625 -59.785156 71.015625 -54.453125 Z M 38.234375 -45.65625 C 44.640625 -45.65625 47.84375 -48.585938 47.84375 -54.453125 C 47.84375 -60.398438 44.640625 -63.375 38.234375 -63.375 L 29.203125 -63.375 L 29.203125 -45.65625 Z M 38.234375 -45.65625 "/></g></g></g><g fill="rgb(100%, 52.938843%, 0%)" fill-opacity="1"><g transform="translate(532.027986, 229.356086)"><g><path d="M 68.59375 -33.25 C 68.59375 -31.476562 68.472656 -29.703125 68.234375 -27.921875 L 25.25 -27.921875 C 25.488281 -24.367188 26.472656 -21.722656 28.203125 -19.984375 C 29.941406 -18.242188 32.164062 -17.375 34.875 -17.375 C 38.65625 -17.375 41.359375 -19.078125 42.984375 -22.484375 L 67.203125 -22.484375 C 66.191406 -17.992188 64.238281 -13.992188 61.34375 -10.484375 C 58.445312 -6.972656 54.796875 -4.210938 50.390625 -2.203125 C 45.992188 -0.191406 41.128906 0.8125 35.796875 0.8125 C 29.390625 0.8125 23.691406 -0.535156 18.703125 -3.234375 C 13.722656 -5.941406 9.820312 -9.804688 7 -14.828125 C 4.1875 -19.847656 2.78125 -25.757812 2.78125 -32.5625 C 2.78125 -39.351562 4.171875 -45.238281 6.953125 -50.21875 C 9.734375 -55.207031 13.613281 -59.050781 18.59375 -61.75 C 23.570312 -64.457031 29.304688 -65.8125 35.796875 -65.8125 C 42.210938 -65.8125 47.890625 -64.492188 52.828125 -61.859375 C 57.773438 -59.234375 61.640625 -55.46875 64.421875 -50.5625 C 67.203125 -45.664062 68.59375 -39.894531 68.59375 -33.25 Z M 45.421875 -38.921875 C 45.421875 -41.703125 44.492188 -43.882812 42.640625 -45.46875 C 40.785156 -47.050781 38.46875 -47.84375 35.6875 -47.84375 C 32.90625 -47.84375 30.625 -47.085938 28.84375 -45.578125 C 27.070312 -44.078125 25.914062 -41.859375 25.375 -38.921875 Z M 45.421875 -38.921875 "/></g></g></g><g fill="rgb(100%, 52.938843%, 0%)" fill-opacity="1"><g transform="translate(603.392559, 229.356086)"><g><path d="M 44.84375 -19.34375 L 44.84375 0 L 34.984375 0 C 18.378906 0 10.078125 -8.222656 10.078125 -24.671875 L 10.078125 -46.109375 L 2.078125 -46.109375 L 2.078125 -65 L 10.078125 -65 L 10.078125 -80.75 L 32.90625 -80.75 L 32.90625 -65 L 44.71875 -65 L 44.71875 -46.109375 L 32.90625 -46.109375 L 32.90625 -24.328125 C 32.90625 -22.554688 33.3125 -21.28125 34.125 -20.5 C 34.9375 -19.726562 36.304688 -19.34375 38.234375 -19.34375 Z M 44.84375 -19.34375 "/></g></g></g><g fill="rgb(100%, 100%, 100%)" fill-opacity="1"><g transform="translate(652.160126, 229.356086)"><g><path d="M 34.171875 0.8125 C 28.304688 0.8125 23.070312 -0.171875 18.46875 -2.140625 C 13.875 -4.109375 10.242188 -6.8125 7.578125 -10.25 C 4.921875 -13.6875 3.4375 -17.566406 3.125 -21.890625 L 25.140625 -21.890625 C 25.453125 -19.804688 26.414062 -18.1875 28.03125 -17.03125 C 29.65625 -15.875 31.664062 -15.296875 34.0625 -15.296875 C 35.914062 -15.296875 37.382812 -15.679688 38.46875 -16.453125 C 39.550781 -17.222656 40.09375 -18.226562 40.09375 -19.46875 C 40.09375 -21.082031 39.203125 -22.273438 37.421875 -23.046875 C 35.640625 -23.828125 32.707031 -24.679688 28.625 -25.609375 C 23.988281 -26.535156 20.125 -27.578125 17.03125 -28.734375 C 13.9375 -29.890625 11.25 -31.78125 8.96875 -34.40625 C 6.695312 -37.03125 5.5625 -40.582031 5.5625 -45.0625 C 5.5625 -48.925781 6.601562 -52.421875 8.6875 -55.546875 C 10.769531 -58.679688 13.835938 -61.175781 17.890625 -63.03125 C 21.953125 -64.882812 26.84375 -65.8125 32.5625 -65.8125 C 41.050781 -65.8125 47.726562 -63.722656 52.59375 -59.546875 C 57.46875 -55.378906 60.289062 -49.894531 61.0625 -43.09375 L 40.546875 -43.09375 C 40.160156 -45.1875 39.253906 -46.789062 37.828125 -47.90625 C 36.398438 -49.03125 34.488281 -49.59375 32.09375 -49.59375 C 30.238281 -49.59375 28.828125 -49.242188 27.859375 -48.546875 C 26.898438 -47.847656 26.421875 -46.882812 26.421875 -45.65625 C 26.421875 -44.101562 27.304688 -42.921875 29.078125 -42.109375 C 30.859375 -41.296875 33.71875 -40.46875 37.65625 -39.625 C 42.363281 -38.625 46.28125 -37.503906 49.40625 -36.265625 C 52.539062 -35.023438 55.285156 -33.035156 57.640625 -30.296875 C 59.992188 -27.554688 61.171875 -23.828125 61.171875 -19.109375 C 61.171875 -15.328125 60.066406 -11.929688 57.859375 -8.921875 C 55.660156 -5.910156 52.535156 -3.535156 48.484375 -1.796875 C 44.429688 -0.0546875 39.660156 0.8125 34.171875 0.8125 Z M 34.171875 0.8125 "/></g></g></g></svg>